<svg xmlns="http://www.w3.org/2000/svg" width="60" height="28" viewBox="0 0 60 28">
    <g fill="none" fill-rule="evenodd">
        <g>
            <g transform="translate(-2756.000000, -269.000000) translate(2756.000000, 269.000000)">
                <rect width="60" height="27.429" fill="#D80C18" rx="2"/>
                <path fill="#FFF" d="M15.817 5.147l-.96 7.824h3.985c.074 0 .113.088.062.142L10.29 22.35c-.056.06-.156.013-.146-.068l.96-7.824H7.12c-.075 0-.113-.089-.062-.143L15.67 5.08c.056-.06.156-.013.146.068zM36.05 6.36v14.726h-2.24V6.359h2.24zm14.481 0v14.726h-2.306V6.359h2.306zm-17.598.081v14.366h-2.208v-6.855h-1.33v-2.165h1.33V6.44h2.208zm9.253-.033c.606 0 1.161.085 1.665.255.502.169.938.428 1.306.779.368.35.66.786.877 1.312.216.524.34 1.137.373 1.836.022.47.038.921.049 1.354.01.43.016.858.016 1.278 0 .422-.005.845-.016 1.27-.011.428-.027.87-.049 1.33-.032.71-.157 1.325-.373 1.844-.217.52-.509.955-.877 1.304-.368.35-.804.61-1.306.78-.504.17-1.059.254-1.665.254-1.223 0-2.213-.345-2.97-1.034-.758-.688-1.175-1.738-1.25-3.148-.022-.47-.041-.918-.057-1.345-.017-.426-.025-.85-.025-1.27 0-.421.008-.846.025-1.273.016-.425.035-.874.057-1.344.075-1.41.492-2.46 1.25-3.148.757-.69 1.747-1.034 2.97-1.034zm-12.143.312v2.034h-.91l-.029 8.7 1.053-.041v2l-7.662.329v-2.034l1.07-.041-.03-8.913h-.91V6.719h7.418zM42.186 8.44c-.281 0-.533.046-.755.14-.221.092-.414.245-.576.459-.162.212-.292.494-.39.843-.097.351-.162.788-.194 1.314-.043.644-.065 1.314-.065 2.008s.022 1.364.065 2.009c.032.524.097.962.194 1.312.098.35.228.631.39.845.162.213.355.365.576.459.222.093.474.139.755.139s.533-.046.755-.14c.222-.093.414-.245.577-.458.162-.214.292-.496.39-.845.096-.35.161-.788.194-1.312.043-.645.065-1.312.065-2 0-.69-.022-1.362-.065-2.017-.033-.526-.098-.963-.194-1.314-.098-.35-.228-.631-.39-.843-.163-.214-.355-.367-.577-.46-.222-.093-.474-.14-.755-.14zm-15.245.312h-1.214l.029 8.828 1.157-.044.028-8.784z"/>
            </g>
        </g>
    </g>
</svg>
